# xmcd
#
# Track frame offsets:
#	150
#	14290
#	30666
#	46447
#	66692
#	82494
#	99486
#	115034
#	135302
#	147802
#	165106
#	180193
#
# Disc length: 2631 seconds
# Revision: 0
# Processed by: cddbd v1.5.2PL0 Copyright (c) Steve Scherf et al.
# Submitted via: dBpowerAMP V12.0
#
DISCID=970a450c
DTITLE=소녀시대 - 2집：Oh!
DYEAR=2010
DGENRE=Dance
TTITLE0=Oh!
TTITLE1=Show! Show! Show!
TTITLE2=뻔&Fun (Sweet Talking Baby)
TTITLE3=영원히 너와 꿈꾸고 싶다 (Forever)
TTITLE4=웃자 (Be Happy)
TTITLE5=화성인 바이러스 (Boy and Girls)
TTITLE6=카라멜 커피 (Talk To Me)
TTITLE7=별별별 (☆★☆)
TTITLE8=무조건 해피엔딩 (Stick Wit U)
TTITLE9=좋은 일만 생각하기 (Day By Day)
TTITLE10=Gee
TTITLE11=소원을 말해봐 (Genie)
EXTD=
EXTT0=
EXTT1=
EXTT2=
EXTT3=
EXTT4=
EXTT5=
EXTT6=
EXTT7=
EXTT8=
EXTT9=
EXTT10=
EXTT11=
PLAYORDER=
